<svg id="visual" viewBox="0 0 900 600" width="900" height="600" xmlns="http://www.w3.org/2000/svg" xmlns:xlink="http://www.w3.org/1999/xlink" version="1.1"><rect x="0" y="0" width="900" height="600" fill="#001220"></rect><defs><linearGradient id="grad1_0" x1="33.3%" y1="0%" x2="100%" y2="100%"><stop offset="20%" stop-color="#001220" stop-opacity="1"></stop><stop offset="80%" stop-color="#001220" stop-opacity="1"></stop></linearGradient></defs><defs><linearGradient id="grad2_0" x1="0%" y1="0%" x2="66.7%" y2="100%"><stop offset="20%" stop-color="#001220" stop-opacity="1"></stop><stop offset="80%" stop-color="#001220" stop-opacity="1"></stop></linearGradient></defs><g transform="translate(900, 0)"><path d="M0 216.3C-38.7 211.2 -77.4 206 -108.2 187.3C-138.9 168.7 -161.7 136.5 -178.4 103C-195.1 69.5 -205.7 34.8 -216.3 0L0 0Z" fill="#21db79"></path></g><g transform="translate(0, 600)"><path d="M0 -216.3C39.1 -211.4 78.1 -206.4 108.2 -187.3C138.2 -168.3 159.3 -135.1 175.8 -101.5C192.3 -67.9 204.3 -34 216.3 0L0 0Z" fill="#21db79"></path></g></svg>